# xmcd
#
# Track frame offsets: 
#        150
#        19828
#        32638
#        46756
#        61557
#        77167
#        95425
#        107613
#        124872
#        145354
#        161671
#        174095
#        186893
#        202980
#        218337
#
# Disc length: 3120 seconds
#
# Revision: 0
# Processed by: cddbd v1.5.2PL0 Copyright (c) Steve Scherf et al.
# Submitted via: ExactAudioCopy v1.0b1
#
DISCID=b90c2e0f
DTITLE=Rock Of Ages Bluesband - Shelter In World's Night
DYEAR=1996
DGENRE=Gospel
TTITLE0=Shelter In World's Night
TTITLE1=My Saviour Knows What The Blues Is All About
TTITLE2=True Love
TTITLE3=Big Surprise
TTITLE4=You Have Told Me (On Safari)
TTITLE5=God's Only Way
TTITLE6=Strange Things
TTITLE7=Lucky Man
TTITLE8=Blues For Ferry (instrumental)
TTITLE9=Joshua Won The Battle Of Jericho
TTITLE10=Great Lord Jesus I Trust In You
TTITLE11=He'll Always Be The Same
TTITLE12=Sad Love
TTITLE13=New Born
TTITLE14=I Go To Heaven
EXTD=
EXTT0=
EXTT1=
EXTT2=
EXTT3=
EXTT4=
EXTT5=
EXTT6=
EXTT7=
EXTT8=
EXTT9=
EXTT10=
EXTT11=
EXTT12=
EXTT13=
EXTT14=
PLAYORDER=
